<?xml version="1.0" encoding="utf-8"?>
<!-- Generator: Adobe Illustrator 23.0.0, SVG Export Plug-In . SVG Version: 6.00 Build 0)  -->
<svg version="1.1" id="katman_1" xmlns="http://www.w3.org/2000/svg" xmlns:xlink="http://www.w3.org/1999/xlink" x="0px" y="0px"
	 viewBox="0 0 595.3 259.4" style="enable-background:new 0 0 595.3 259.4;" xml:space="preserve">
<style type="text/css">
	.st0{fill:#737373;}
</style>
<g>
	<path class="st0" d="M44.4,42.4c-0.1-1.2-0.6-2.8-1.5-4.8s-2-4.6-3.3-7.6c-1.5-2.8-2.5-5-3.2-6.6s-0.9-2.7-0.8-3.3
		C36,17.7,39.5,13.8,46,8.3C52.3,2.8,56.9,0,59.4,0c1.7,0.8,3,1.5,3.7,2.3H67c2.1,1.2,4.3,2.3,6.5,3.3c2.3,1,4.4,2.1,6.6,3.2
		c6.4,3.2,10.3,5.7,11.6,7.6c1.4,1.9,3.7,4.1,7.1,6.5c0.4,0.7,1.2,1.8,2.5,3.4s3,3.6,5.2,6c0.3,0.3,0.6,0.7,1,1.4s0.8,1.4,1.3,2.2
		c2.9,4.4,5.3,8.4,7.2,12.1c1.9,3.7,3.2,7.1,3.9,10.3c0.9,3.8,1.4,8,1.5,12.3c0,4.4-0.4,9.1-1.3,14.2c-1.7,9.5-4.4,17.5-8.1,24
		s-8.5,11.3-14.5,14.5c-0.6,0.4-1.4,0.9-2.4,1.5s-2.1,1.2-3.2,1.9l-2,1.7c-1.7,1.6-4.5,3.4-8.2,5.2s-8.5,3.8-14.3,6
		c-7.8,2.8-16,5.9-24.6,9.2c-2.4,1.1-4.5,2-6.2,2.7s-3,1-3.8,1c-2.5,0-4,0.2-4.6,0.5s-1.7,3.8-3.2,10.3c-1,4.2-2,8.3-2.9,12.4
		c-0.3,1.5-0.1,3.2,0.5,5.1c0.6,1.9,1.6,4,3.1,6.2c-1.1,1.7-2.3,3.4-3.5,5c-1.3,1.6-2.8,3.4-4.6,5.3c-1.9,2.3-3.8,4.1-5.7,5.2
		c-1.8,1.2-3.5,1.7-4.9,1.7c-2.8,0-4.6-1.5-5.4-4.5s-0.7-7.5,0.4-13.5c0.3-1.9,1-4.3,2.2-7.1c1.1-2.9,2.6-6.4,4.6-10.6l0.7-7.5
		c-1-0.5-2-1.1-3-1.7c-1-0.6-1.9-1.2-2.8-1.9c-1.4-0.7-2.4-1.5-2.9-2.3c-0.5-0.9-0.7-1.7-0.5-2.6c0.2-1,2.5-2.5,7-4.6
		c4.5-2,7.1-4.7,7.6-8c0.2-0.9,0.2-2.3,0.1-4.1c-0.1-1.8,0-3.1,0.1-4c1.6-5,3.4-10,5.2-15c0.3-0.5,0.7-2.1,1.5-4.6
		c0.7-2.6,1.7-6.3,3-11c0.5-1.5,1.2-3.3,2.1-5.5s1.9-4.8,3-7.7l-0.1-4.6L44.4,42.4z M57.6,27.2c-0.5,0-0.9,0.1-1.2,0.4
		s-0.4,0.6-0.5,1.2c8.2,10.5,11.9,18.3,11,23.4c-0.3,1.5-3.1,8.2-8.5,20C53.1,83.8,49.6,90.9,48,93.4l0.1,5.4
		c-3.8,8.6-6.9,16.1-9.1,22.3c-2.2,6.2-3.7,11.1-4.3,14.8c-0.2,0.9-0.1,1.6,0.2,2.1c0.3,0.4,0.8,0.6,1.5,0.6c0.9,0,2.5-0.4,4.8-1.2
		c2.4-0.8,5.5-2.1,9.3-4c2.4-1.2,4.9-2.3,7.3-3.3c2.4-1,4.9-2.1,7.4-3.2c1-0.5,2.2-1.2,3.6-2s2.9-1.8,4.6-2.9
		c2.3-1.5,4.2-2.8,5.5-3.8c1.4-1,2.3-1.6,2.6-1.9c4.1-2.6,7.5-5.8,10-9.6c2.6-3.9,4.3-8.4,5.2-13.7c0.6-3.2,0.8-6.4,0.6-9.6
		c-0.2-3.3-0.7-6.6-1.5-10l0.3-3.1c-0.1-0.4-0.3-0.9-0.6-1.5c-0.3-0.6-0.7-1.2-1.1-1.9c-0.4-0.5-0.9-1.2-1.3-2.1
		c-0.5-0.9-0.8-2-1.1-3.3c-0.9-2.7-2.8-5.9-5.7-9.9c-2.9-3.9-6.9-8.5-12-13.6c-0.6-0.6-1.2-1.3-1.9-2.1c-0.7-0.8-1.5-1.7-2.4-2.6
		c-1.5-0.8-3.3-1.6-5.3-2.6C62.6,29.7,60.3,28.5,57.6,27.2z"/>
	<path class="st0" d="M110.8,151.4c1.3-1.8,3-3.6,4.9-5.5s4.3-3.7,7.2-5.7c0.6-1.7,1.1-3.4,1.7-5.1c0.6-1.7,1-3.4,1.4-5.1
		c0.5-1.2,1.1-2.6,2-4.2c0.8-1.6,1.8-3.4,2.8-5.3c1.1-1.9,2.6-4.2,4.4-7.1c1.8-2.8,4.1-6,6.9-9.5c2.1-2,4.4-4.1,6.8-6.5
		c2.4-2.4,4.8-4.7,7.2-7.1c1.1-0.8,2.2-1.5,3.5-2.2c1.2-0.7,2.5-1.5,3.7-2.3c1.1-0.3,2.3-0.6,3.6-0.9s2.8-0.4,4.3-0.4
		c2.1,0,3.8,0.2,5.1,0.6s2.2,1.2,2.9,2.2c0.5,0.7,0.9,1.7,1.2,3.1s0.6,3,0.7,5c0,1.7-0.1,3.6-0.1,5.7c0.1-0.5-0.1-0.3-0.6,0.6
		s-1.2,2.4-2.1,4.5l-1.9,4.1c-1.9,4.1-5.5,8.9-10.6,14.3c-5.1,5.4-11.9,11.6-20.2,18.5c-0.7,0.6-1.3,1.3-1.9,2.2
		c-0.6,0.9-1,1.9-1.2,2.9c-0.3,1.8-0.3,3.4,0.1,4.8c0.4,1.4,1.1,2.4,2.2,3.1c0.6,0.5,1.6,1,3,1.5s3.1,1,5.1,1.4
		c3.4-0.3,6.5-0.8,9.4-1.7s5.5-1.9,7.9-3.1c0.5-0.3,1.2-0.6,2.2-1.1s2.1-1.1,3.2-1.9c0.7,2.5,1.3,4.7,1.8,6.7s0.9,3.7,1.2,5.1
		c-5.7,4.8-10.8,8.4-15.2,10.8c-4.4,2.4-8.3,3.7-11.6,3.7c-1.5,0.9-3.2,1.5-5,1.9s-3.9,0.6-6.3,0.6c-3.2,0-5.9-0.5-8.2-1.4
		s-4.1-2.3-5.4-4.1c-0.7-0.9-1.3-2.1-1.9-3.8s-1.1-3.7-1.6-6c-0.4-1.9-0.9-3.3-1.5-4.2c-0.5-0.9-1.2-1.4-2.1-1.4
		c-0.7,0-1.5,0.3-2.5,1c-1,0.6-2.1,1.6-3.3,2.9c-0.1-1.3-0.4-2.9-1-4.8C112.4,156.6,111.7,154.2,110.8,151.4z M159.3,109.7
		c-1.9,0-4.8,2.5-8.9,7.4c-4,4.9-6.3,8.5-6.7,10.9c-0.1,0.5,0,0.9,0.1,1.1c0.2,0.2,0.6,0.3,1.3,0.3c0.9,0,1.8-0.5,2.6-1.5
		s1.5-1.9,2.2-2.8c1.1-0.9,2.2-1.8,3.2-2.8c1.1-1,2.1-1.9,3.1-2.9c1.2-1.2,2.2-2.4,2.9-3.6s1.2-2.4,1.4-3.6c0.1-0.8,0.1-1.4-0.1-1.9
		C160.3,109.9,159.9,109.7,159.3,109.7z"/>
	<path class="st0" d="M175.4,151.4c0.9-0.9,1.9-1.9,2.9-3.1c1-1.2,2.3-2.6,3.8-4l9.8-7.4c0.4-0.3,0.6-0.6,0.8-1
		c0.1-0.4,0.2-1,0.4-1.8c0.1-1.1,0.1-2,0.1-2.7c0.3-2,1.3-5.3,2.9-9.9c1.6-4.6,2.8-7.4,3.5-8.4l-0.3-2.4c2.1-5.7,4.8-12,8-18.8
		c3.2-6.8,6.8-14.2,10.8-22.1c1.1-1.4,2.3-3.1,3.6-5.2s2.8-4.5,4.5-7.1c2.2-4.5,5-9.1,8.2-14c3.3-4.9,6.8-9.9,10.7-15
		c5.2-6.8,9.7-11.9,13.4-15.3s6.8-5.1,9.3-5.1c5,0,8.2,1,9.7,2.9s1.8,5.5,0.8,10.8c-0.2,1.4-0.9,3.5-1.8,6.4c-1,2.9-1.6,5-1.8,6.5
		c-0.3,1.5-1.1,3.5-2.5,6.2s-2.3,5.1-2.7,7.3c-0.2,0.7-0.5,1.4-1,2.1l-0.2,1.8c-0.6,1.2-1.3,2.7-2.3,4.4s-2.3,3.8-3.8,6.2
		c-1,2.1-2.2,4.6-3.6,7.4s-3.1,5.9-5,9.2c-0.7,0.9-1.5,1.9-2.5,3.1s-2.2,2.6-3.4,4.2c-0.5,1.1-1.1,2.4-2,3.9s-2,3.2-3.3,5.1
		c-0.7,1-1.6,2.1-2.6,3.3c-1.1,1.2-2.4,2.7-3.9,4.6c-0.7,0.9-1.4,1.9-2.2,3.2c-0.8,1.3-1.8,2.7-2.8,4.4c-1.2,1.5-2.8,3.3-4.7,5.4
		s-4.1,4.7-6.6,7.6c-3.5,4.7-7,9.2-10.6,13.5c-1.5,8.3-0.9,14.6,1.6,18.8s7.1,6.4,13.7,6.4c0.4,0,1.8-0.3,4-0.9
		c2.2-0.6,5.4-1.5,9.4-2.8c1.2-0.7,2.7-1.6,4.5-2.9c1.8-1.2,3.8-2.7,6-4.4l2.9,11.8c-2.6,2-5.2,4-7.7,6c-2.6,2.1-5.2,4.1-7.9,6
		c-3,2.2-6,3.9-9,5.1c-2.9,1.2-5.7,1.7-8.4,1.7c-1.4,0-3.4-0.1-6.2-0.5c-2.8-0.3-4.9-0.4-6.3-0.4c-4.8,0-8.4-1.9-10.9-5.8
		c-2.4-3.9-3.6-9.6-3.6-17.3c0-0.8-0.1-1.5-0.3-2.1s-0.6-1.3-1.2-2.1c-1.3,1.1-2.8,2.4-4.6,4c-1.8,1.5-3.9,3.3-6.4,5.3L175.4,151.4z
		 M254.4,50.6l-0.8-0.5c-5.6,4.6-10,9-13.2,13.1s-5.1,8.1-5.8,11.9c-0.1,0.6-0.6,1.6-1.4,3c-0.8,1.4-2,3.2-3.5,5.5
		c-1.8,2.7-3.8,5.6-5.8,8.7c-2.5,4.8-4.4,8.7-5.8,11.7c-1.4,3-2.2,5.1-2.4,6.4l0.6,1c0.8-0.1,1.9-0.9,3.2-2.3c1.4-1.5,3-3.6,5-6.4
		c1-1.5,2.3-3.3,3.9-5.4c1.6-2.1,3.5-4.5,5.7-7.3c1.7-1.9,4.7-6.7,9.1-14.5c4.4-7.8,6.9-12.8,7.5-14.9c0.4-1.7,0.9-3.4,1.6-5.1
		C253.1,53.9,253.8,52.2,254.4,50.6z"/>
	<path class="st0" d="M247.8,151.4l0.9-0.9l0.6-1.3c2.9-3.2,7.7-7.3,14.4-12.4c6.7-5.1,11.5-9.2,14.3-12.4c1.1-1.4,2.3-2.4,3.5-3
		s2.4-0.9,3.5-0.9c3,0,5.4,0.7,7.2,2.2c1.8,1.5,2.8,3.7,2.9,6.7c0.1,2.7,0.2,5.3,0.3,8c0,2.7,0,5.4-0.2,8.2c0.3,1.7,0.6,4.3,0.8,7.8
		c0.2,3.5,0.5,5.5,0.9,6c0.3,0.9,0.8,1.5,1.6,1.9c0.8,0.4,1.8,0.6,3.1,0.6c1.5,0,3.2-0.3,4.9-0.8c1.7-0.6,3.6-1.5,5.5-2.9
		c1.5-1.1,3-2.2,4.6-3.4s3.2-2.3,4.8-3.4l3.1,11.8c-1.6,1.4-3.7,2.9-6.3,4.7c-2.6,1.8-5.7,3.8-9.2,6.1c-4,2.6-7.3,4.5-10,5.7
		s-4.7,1.9-6,1.9c-7.8,0-12.7-0.9-14.7-2.7s-3.7-6.8-5.1-15c-0.2-0.7-0.6-1.5-1.1-2.4s-1.1-2.1-1.7-3.3c-0.7-2-1.3-3.4-1.9-4.4
		s-1.2-1.5-1.7-1.5c-1.4,0-3.4,0.9-6,2.8c-2.6,1.8-5.9,4.6-9.9,8.3c-0.2-1.1-0.5-2.4-0.9-4c-0.4-1.5-0.7-3.3-1-5.4
		c-0.1-0.5-0.2-1-0.4-1.4C248.4,152,248.1,151.7,247.8,151.4z M319.4,50.1c2.1,0,3.6,0.4,4.5,1.3c0.8,0.9,1.1,2.1,0.8,3.7
		c-0.9,2.4-1.7,4.4-2.3,6c-1.4,3.1-2.6,5.6-3.6,7.6s-1.7,3.4-2.2,4.2c-1.1,1.9-2.4,3.5-4,4.9s-3.4,2.7-5.5,3.8
		c-2.2,1.4-4,2.3-5.5,2.9c-1.4,0.6-2.4,0.8-2.9,0.7c-1.4-0.2-2.8-0.3-4.1-0.4c-1.3-0.1-2.6-0.2-3.9-0.2c-1-0.6-1.7-1.8-2-3.5
		s-0.3-4,0.3-6.9c0.5-2.6,2.6-5.8,6.4-9.7c3.8-3.9,6.9-6,9.4-6.2c1.8-1.8,3.8-3.9,6.2-6.2c1-0.6,2.2-1.1,3.6-1.5
		C316,50.3,317.6,50.1,319.4,50.1z"/>
	<path class="st0" d="M321.3,151.4c0.5-0.6,1-1.3,1.7-2s1.5-1.6,2.5-2.6c1-0.7,2.3-1.7,3.9-3s3.4-2.8,5.4-4.5
		c1.8-1.7,4.1-3.8,6.8-6.4c2.7-2.5,5.9-5.6,9.7-9.2c1.6-1.5,3.7-3.3,6.1-5.6c2.5-2.3,5.4-5,8.8-8.2c2.9-2.8,5.8-4.9,8.8-6.3
		s6-2.1,9.1-2.1s5.2,1,6.3,2.9c1.1,1.9,1.3,4.7,0.7,8.4c-0.3,2-1.7,5.7-4.2,11.3c-2.4,5.6-6,12.9-10.7,22.1c-1.1,1.7-2.1,3.3-3,4.9
		c-0.7,1.1-1.2,2.1-1.5,3s-0.5,1.5-0.6,1.9c-0.1,0.5,0.1,1.2,0.6,1.9c0.5-0.3,0.9-0.6,1.4-1s1-0.9,1.6-1.5c0.9-1.3,2.2-2.6,3.9-4
		c1.7-1.4,3.6-3,5.9-4.7c1-1.5,2.3-2.9,3.8-4.3c1.5-1.4,3.1-2.7,4.9-3.9c0.4-0.3,0.9-0.9,1.6-1.7s1.5-1.6,2.4-2.4
		c1.3-1.1,2.8-2.3,4.6-3.5c1.8-1.2,3.8-2.4,6-3.7c2.5-1.2,4.8-2.1,6.7-2.8c2-0.7,3.6-1,5-1c2.7,0,4.9,0.6,6.7,1.9
		c1.8,1.3,3.2,3.3,4.2,6c0.8,5.3,1.5,10.2,2.3,14.8c0.5,2.7,1.2,4.6,2.1,5.9c0.9,1.3,2.1,1.9,3.6,1.9c1.1,0,2.2-0.2,3.1-0.6
		c1-0.4,1.9-1.1,2.8-1.9l3.1,11.8c-1.7,1.2-3.4,2.4-5.2,3.7c-1.8,1.3-3.5,2.5-5.2,3.7c-2.3,1.8-4.3,3.1-6.2,3.8
		c-1.8,0.7-3.6,1.1-5.3,1.1c-2,0-3.8-0.4-5.4-1.3c-1.6-0.9-3-2.1-3.9-3.9c-0.6-0.7-1.2-1.9-1.9-3.8c-0.7-1.8-1.5-4.1-2.4-6.9
		c-0.9-1.1-1.9-2.6-3-4.4c-1.1-1.8-2.4-4-3.8-6.5l-1.1-0.4c-1.7,0.5-3.5,1.3-5.2,2.3c-1.8,1-3.7,2.4-5.8,4c-4.5,3.4-7.6,5.6-9.5,6.4
		c-1.9,0.9-3.2,1.8-4,3c-1.6,2.1-4.1,4.7-7.6,8s-7.8,7.1-12.9,11.6c-1.3,1.1-2.6,2.2-3.9,3.3s-2.6,2.1-3.9,3.1
		c-1.3,0.9-2.7,1.6-4.1,2c-1.5,0.4-3.1,0.6-4.8,0.6c-3.4,0-5.1-1.2-5-3.5c0.1-2.4,0.3-4.7,0.4-7.1c1.9-3.6,4.2-8.1,6.7-13.5
		c2.6-5.4,5.6-11.7,8.9-18.9c0.1-0.4,0.3-1,0.7-1.7c0.4-0.7,1-1.7,1.6-2.9c0.6-1.1,1.1-2.1,1.4-2.9c0.3-0.8,0.5-1.5,0.6-2.1
		s0-1.1-0.4-1.4c-0.4-0.3-1-0.5-2-0.5c-0.9,0-2.1,0.5-3.7,1.5s-3.6,2.7-5.9,4.9c-2.8,2.6-5.1,4.6-6.8,6c-1.7,1.5-2.8,2.3-3.4,2.6
		c-1,0.6-2.1,1.5-3.5,2.6s-2.9,2.4-4.6,3.7c-0.2,0.3-0.6,0.9-1,1.5c-0.5,0.7-1.2,1.5-2.1,2.3c-0.1-1.3-0.4-2.9-1-4.8
		C322.9,156.6,322.2,154.2,321.3,151.4z"/>
	<path class="st0" d="M444,151.4l1.3-1c0.2-0.9,1-2.1,2.4-3.3c1.3-1.3,3.2-2.8,5.5-4.5c1.4-0.9,3-1.8,4.5-2.7
		c1.6-0.9,3.1-1.8,4.5-2.8c6.2-4.6,12.2-9.1,18-13.4c3.4-2.6,6.7-4.8,9.9-6.6c3.2-1.8,6.2-3.3,9-4.4c2.2-2.3,6-4.7,11.3-7.1
		S520,102,523,102c1.2,0,2.1,0.3,2.7,1c0.6,0.7,0.9,1.5,0.9,2.6l-1.2,7.1c-0.4,2.5-1.5,4.7-3.3,6.6s-4.2,3.7-7.3,5.3
		c-2,0.9-4.1,1.8-6.1,2.8c-2.1,1-4.1,2-6.1,2.8c-0.8,0.9-2.9,2.5-6.3,4.8c-3.4,2.4-7.9,5.5-13.7,9.4c-2.6,1.8-4.8,3.4-6.6,4.8
		c-1.8,1.4-3.1,2.5-3.8,3.4c-1.1,1.6-2.1,3.4-2.9,5.4s-1.5,4.2-1.9,6.8c-0.3,2-0.3,3.7,0,5.1c0.3,1.4,1,2.6,2.1,3.4
		c0.7,0.6,1.8,1.2,3.2,1.8c1.4,0.6,3.1,1.2,5.3,1.8c1.4-0.5,3.1-1,5.3-1.5c2.2-0.5,4.6-1.1,7.3-1.9c3.2-1.7,6.5-3.5,9.9-5.4
		s6.7-3.8,10.1-5.8c0.5-0.3,1.1-0.5,1.8-0.8c0.7-0.3,1.4-0.7,2.2-1.4c1.1-1.1,2.5-2.4,4.2-3.9c1.8-1.5,3.9-3.1,6.3-5
		c2.1,7.4,3.1,11.4,3.1,11.8c-3.6,2.6-7.3,5.2-11,7.9s-7.8,4.9-12.3,6.6c-1.6,1.1-2.9,2.1-4,3.1c-5,4.3-10.6,7.5-16.7,9.7
		s-12.8,3.3-20,3.3c-1.6,0-3.1-0.1-4.3-0.4c-1.2-0.3-2.3-0.6-3-1c-2.3-1.7-4.2-3.2-5.8-4.5c-1.6-1.4-3-2.7-4.1-3.9s-1.8-2.4-2.2-3.5
		c-0.6-1.2-0.8-2.7-0.8-4.4s0.2-3.8,0.7-6.3c0.1-0.7,0.5-1.8,1.2-3.3s1.1-2.6,1.2-3.2c-0.3-1.9-0.7-3.8-1.2-5.8
		C445.4,155.5,444.8,153.5,444,151.4z"/>
	<path class="st0" d="M525.1,151.4c1.3-1.8,3-3.6,4.9-5.5s4.3-3.7,7.2-5.7c0.6-1.7,1.1-3.4,1.7-5.1c0.6-1.7,1-3.4,1.4-5.1
		c0.5-1.2,1.1-2.6,2-4.2c0.8-1.6,1.8-3.4,2.8-5.3c1.1-1.9,2.6-4.2,4.4-7.1c1.8-2.8,4.1-6,6.9-9.5c2.1-2,4.4-4.1,6.8-6.5
		c2.4-2.4,4.8-4.7,7.2-7.1c1.1-0.8,2.2-1.5,3.5-2.2c1.2-0.7,2.5-1.5,3.7-2.3c1.1-0.3,2.3-0.6,3.6-0.9s2.8-0.4,4.3-0.4
		c2.1,0,3.8,0.2,5.1,0.6s2.2,1.2,2.9,2.2c0.5,0.7,0.9,1.7,1.2,3.1s0.6,3,0.7,5c0,1.7-0.1,3.6-0.1,5.7c0.1-0.5-0.1-0.3-0.6,0.6
		s-1.2,2.4-2.1,4.5l-1.9,4.1c-1.9,4.1-5.5,8.9-10.6,14.3c-5.1,5.4-11.9,11.6-20.2,18.5c-0.7,0.6-1.3,1.3-1.9,2.2
		c-0.6,0.9-1,1.9-1.2,2.9c-0.3,1.8-0.3,3.4,0.1,4.8c0.4,1.4,1.1,2.4,2.2,3.1c0.6,0.5,1.6,1,3,1.5s3.1,1,5.1,1.4
		c3.4-0.3,6.5-0.8,9.4-1.7s5.5-1.9,7.9-3.1c0.5-0.3,1.2-0.6,2.2-1.1s2.1-1.1,3.2-1.9c0.7,2.5,1.3,4.7,1.8,6.7s0.9,3.7,1.2,5.1
		c-5.7,4.8-10.8,8.4-15.2,10.8c-4.4,2.4-8.3,3.7-11.6,3.7c-1.5,0.9-3.2,1.5-5,1.9s-3.9,0.6-6.3,0.6c-3.2,0-5.9-0.5-8.2-1.4
		s-4.1-2.3-5.4-4.1c-0.7-0.9-1.3-2.1-1.9-3.8c-0.6-1.7-1.1-3.7-1.6-6c-0.4-1.9-0.9-3.3-1.4-4.2s-1.2-1.4-2.1-1.4
		c-0.7,0-1.5,0.3-2.5,1c-1,0.6-2.1,1.6-3.3,2.9c-0.1-1.3-0.4-2.9-1-4.8C526.6,156.6,525.9,154.2,525.1,151.4z M573.5,109.7
		c-1.9,0-4.8,2.5-8.9,7.4c-4,4.9-6.3,8.5-6.7,10.9c-0.1,0.5,0,0.9,0.1,1.1c0.2,0.2,0.6,0.3,1.3,0.3c0.9,0,1.8-0.5,2.6-1.5
		s1.5-1.9,2.2-2.8c1.1-0.9,2.2-1.8,3.2-2.8c1.1-1,2.1-1.9,3.1-2.9c1.2-1.2,2.2-2.4,2.9-3.6s1.2-2.4,1.4-3.6c0.1-0.8,0.1-1.4-0.1-1.9
		C574.5,109.9,574.1,109.7,573.5,109.7z"/>
</g>
<g>
	<path class="st0" d="M159.3,245.7c-3.3,0-6.4-0.6-9.2-1.8c-2.8-1.2-5.2-2.9-7.2-5c-2-2.1-3.6-4.6-4.8-7.5c-1.2-2.8-1.7-5.9-1.7-9.1
		c0-3.2,0.6-6.2,1.7-9.1c1.1-2.8,2.7-5.3,4.8-7.5c2-2.1,4.4-3.8,7.2-5c2.8-1.2,5.9-1.8,9.2-1.8c3.3,0,6.3,0.6,9.1,1.8
		c2.8,1.2,5.2,2.9,7.3,5c2,2.1,3.6,4.6,4.8,7.5c1.1,2.8,1.7,5.9,1.7,9.1c0,3.2-0.6,6.2-1.7,9.1c-1.1,2.8-2.7,5.3-4.8,7.5
		c-2,2.1-4.5,3.8-7.3,5C165.5,245.1,162.5,245.7,159.3,245.7z M159.3,241.9c2.5,0,5-0.5,7.3-1.4c2.3-1,4.3-2.3,6-4
		c1.7-1.7,3-3.8,4-6.2c1-2.4,1.5-5,1.5-7.9s-0.5-5.5-1.5-7.9c-1-2.4-2.4-4.5-4-6.2c-1.7-1.7-3.7-3.1-6-4c-2.3-1-4.7-1.4-7.3-1.4
		c-2.6,0-5,0.5-7.3,1.4c-2.3,1-4.3,2.3-6,4c-1.7,1.7-3.1,3.8-4,6.2c-1,2.4-1.5,5-1.5,7.9s0.5,5.5,1.5,7.9c1,2.4,2.3,4.5,4,6.2
		c1.7,1.7,3.7,3.1,6,4C154.2,241.4,156.7,241.9,159.3,241.9z"/>
	<path class="st0" d="M187.1,244.7V214h3.8v5.4h0.3c0.3-0.9,0.8-1.8,1.4-2.5c0.6-0.8,1.4-1.4,2.2-2c0.8-0.6,1.7-1,2.6-1.3
		c0.9-0.3,1.8-0.5,2.6-0.5c1,0,1.8,0.1,2.4,0.2c0.6,0.1,1.2,0.4,1.8,0.7l-1.3,3.6c-0.8-0.4-2-0.6-3.4-0.6c-1.1,0-2.1,0.3-3.1,0.8
		c-1,0.5-1.9,1.2-2.6,2.2c-0.8,0.9-1.4,2-1.8,3.3c-0.5,1.3-0.7,2.7-0.7,4.2v17.3H187.1z"/>
	<path class="st0" d="M218.3,259.3c-2,0-3.8-0.3-5.3-0.8c-1.5-0.5-2.8-1.2-3.9-2.1c-1.1-0.8-2-1.8-2.7-2.9c-0.7-1.1-1.3-2.1-1.6-3.2
		l3.8-1.5c0.7,2.1,1.9,3.7,3.6,5c1.8,1.2,3.8,1.8,6.1,1.8c3.7,0,6.5-1.1,8.3-3.2c1.9-2.2,2.8-5.1,2.8-8.9v-4h-0.3
		c-1,1.6-2.4,3.1-4.3,4.4c-1.9,1.3-4.2,1.9-7,1.9c-2,0-3.8-0.4-5.5-1.2c-1.7-0.8-3.3-2-4.6-3.4c-1.3-1.5-2.4-3.2-3.2-5.2
		c-0.8-2-1.2-4.2-1.2-6.5s0.4-4.5,1.2-6.5c0.8-2,1.8-3.7,3.2-5.2c1.3-1.5,2.9-2.6,4.6-3.4c1.7-0.8,3.6-1.2,5.5-1.2
		c2.8,0,5.1,0.6,7,1.9c1.9,1.3,3.3,2.7,4.3,4.3h0.3V214h3.9v29.7c0,2.6-0.4,4.9-1.2,6.8c-0.8,1.9-1.8,3.6-3.2,4.9
		c-1.4,1.3-3,2.3-4.8,2.9C222.4,258.9,220.4,259.3,218.3,259.3z M218.4,242.1c1.4,0,2.8-0.3,4.2-0.8c1.4-0.6,2.5-1.4,3.6-2.5
		c1-1.1,1.8-2.4,2.5-4s0.9-3.4,0.9-5.4s-0.3-3.9-0.9-5.4s-1.5-2.9-2.5-4c-1-1.1-2.2-1.9-3.6-2.5c-1.4-0.6-2.7-0.8-4.2-0.8
		c-1.4,0-2.8,0.3-4.1,0.9c-1.3,0.6-2.5,1.4-3.5,2.5c-1,1.1-1.8,2.4-2.5,4s-0.9,3.4-0.9,5.4c0,2,0.3,3.7,0.9,5.3
		c0.6,1.6,1.5,2.9,2.5,4c1,1.1,2.2,1.9,3.5,2.5C215.6,241.8,217,242.1,218.4,242.1z"/>
	<path class="st0" d="M260.1,239.3h-0.3c-1,1.8-2.5,3.3-4.4,4.6c-1.9,1.3-4,1.9-6.5,1.9c-1.7,0-3.2-0.3-4.6-0.8
		c-1.4-0.5-2.7-1.2-3.7-2.1c-1-0.9-1.9-2-2.4-3.2c-0.6-1.3-0.9-2.6-0.9-4.1c0-1.7,0.3-3.2,1-4.5c0.7-1.3,1.6-2.4,2.8-3.3
		c1.2-0.9,2.6-1.5,4.1-2c1.6-0.4,3.2-0.7,5-0.7c2.1,0,4,0.2,5.6,0.7c1.7,0.5,3.1,1,4.1,1.7v-1.9c0-1.4-0.3-2.6-0.8-3.8
		c-0.5-1.1-1.2-2.1-2-2.9c-0.8-0.8-1.8-1.4-3-1.8c-1.1-0.4-2.4-0.6-3.6-0.6c-1.9,0-3.6,0.4-5,1.2c-1.5,0.8-2.7,2-3.6,3.5l-3.5-2.2
		c1.2-1.9,2.9-3.4,5-4.5c2.1-1.1,4.5-1.7,7.1-1.7c2,0,3.9,0.3,5.5,0.9c1.6,0.6,3,1.5,4.2,2.6c1.2,1.1,2.1,2.4,2.7,4s0.9,3.2,0.9,5.1
		v19.2h-3.9V239.3z M260.1,231.1c-1.3-0.8-2.6-1.4-4.1-1.8c-1.5-0.5-3.2-0.7-5-0.7c-1.4,0-2.6,0.2-3.8,0.5c-1.2,0.3-2.2,0.8-3,1.4
		c-0.9,0.6-1.5,1.3-2,2.2c-0.5,0.9-0.7,1.9-0.7,2.9c0,1,0.2,1.9,0.7,2.7c0.4,0.8,1,1.5,1.8,2.1c0.8,0.6,1.6,1,2.5,1.3
		s1.9,0.5,2.9,0.5c1.4,0,2.7-0.3,4-0.9c1.3-0.6,2.4-1.4,3.4-2.4s1.8-2.2,2.4-3.5C259.8,234,260.1,232.6,260.1,231.1z"/>
	<path class="st0" d="M273.5,219.8h0.3c0.5-0.9,1.1-1.8,1.8-2.6c0.7-0.8,1.5-1.5,2.5-2.2c0.9-0.6,2-1.1,3.1-1.5
		c1.1-0.4,2.3-0.5,3.6-0.5c1.9,0,3.5,0.3,5,0.9c1.4,0.6,2.6,1.5,3.5,2.6c0.9,1.1,1.6,2.4,2.1,4c0.5,1.5,0.7,3.2,0.7,5v19.2h-4v-18.6
		c0-3.3-0.7-5.7-2.2-7.2c-1.5-1.5-3.5-2.3-6.1-2.3c-1.5,0-2.8,0.3-4,1c-1.2,0.6-2.3,1.5-3.1,2.6c-0.9,1.1-1.6,2.4-2.1,3.8
		c-0.5,1.4-0.8,2.9-0.8,4.5v16.2h-4V214h3.8V219.8z"/>
	<path class="st0" d="M304.4,206c-0.9,0-1.6-0.3-2.2-0.9c-0.6-0.6-0.9-1.3-0.9-2.2c0-0.9,0.3-1.6,0.9-2.2c0.6-0.6,1.3-0.9,2.2-0.9
		c0.8,0,1.6,0.3,2.2,0.9c0.6,0.6,0.9,1.3,0.9,2.2c0,0.8-0.3,1.6-0.9,2.2C305.9,205.7,305.2,206,304.4,206z M302.4,244.7V214h4v30.7
		H302.4z"/>
	<path class="st0" d="M311.3,241.3l18.8-23.7h-18.3V214H335v3.4l-18.8,23.7h19.1v3.6h-23.9V241.3z"/>
	<path class="st0" d="M360.2,239.3h-0.3c-1,1.8-2.5,3.3-4.4,4.6c-1.9,1.3-4,1.9-6.5,1.9c-1.7,0-3.2-0.3-4.6-0.8
		c-1.4-0.5-2.7-1.2-3.7-2.1c-1-0.9-1.9-2-2.4-3.2c-0.6-1.3-0.9-2.6-0.9-4.1c0-1.7,0.3-3.2,1-4.5c0.7-1.3,1.6-2.4,2.8-3.3
		c1.2-0.9,2.6-1.5,4.1-2c1.6-0.4,3.2-0.7,5-0.7c2.1,0,4,0.2,5.6,0.7c1.7,0.5,3,1,4.1,1.7v-1.9c0-1.4-0.3-2.6-0.8-3.8
		c-0.5-1.1-1.2-2.1-2-2.9c-0.8-0.8-1.8-1.4-3-1.8c-1.2-0.4-2.4-0.6-3.6-0.6c-1.9,0-3.6,0.4-5,1.2c-1.5,0.8-2.7,2-3.6,3.5l-3.5-2.2
		c1.2-1.9,2.9-3.4,5-4.5c2.1-1.1,4.5-1.7,7.1-1.7c2,0,3.9,0.3,5.5,0.9c1.6,0.6,3,1.5,4.2,2.6c1.2,1.1,2.1,2.4,2.7,4s0.9,3.2,0.9,5.1
		v19.2h-3.9V239.3z M360.2,231.1c-1.3-0.8-2.6-1.4-4.1-1.8c-1.5-0.5-3.2-0.7-5-0.7c-1.4,0-2.6,0.2-3.8,0.5c-1.2,0.3-2.2,0.8-3,1.4
		c-0.9,0.6-1.5,1.3-2,2.2s-0.7,1.9-0.7,2.9c0,1,0.2,1.9,0.7,2.7c0.4,0.8,1,1.5,1.8,2.1c0.8,0.6,1.6,1,2.5,1.3s1.9,0.5,2.9,0.5
		c1.4,0,2.7-0.3,4-0.9c1.3-0.6,2.4-1.4,3.4-2.4s1.8-2.2,2.4-3.5C359.9,234,360.2,232.6,360.2,231.1z"/>
	<path class="st0" d="M372.6,217.6H367V214h5.6v-9.4h4v9.4h7.6v3.6h-7.6v18.9c0,1.8,0.4,3.2,1.3,4.1c0.8,0.9,1.8,1.4,3,1.4
		c0.6,0,1.2-0.1,1.6-0.2c0.4-0.1,0.9-0.3,1.5-0.5l1.3,3.4c-0.7,0.3-1.4,0.6-2.2,0.7s-1.6,0.2-2.6,0.2c-2.2,0-4-0.7-5.5-2.1
		c-0.8-0.7-1.3-1.6-1.8-2.6s-0.6-2.3-0.6-3.8V217.6z"/>
	<path class="st0" d="M391.8,206c-0.9,0-1.6-0.3-2.2-0.9c-0.6-0.6-0.9-1.3-0.9-2.2c0-0.9,0.3-1.6,0.9-2.2c0.6-0.6,1.3-0.9,2.2-0.9
		c0.8,0,1.6,0.3,2.2,0.9c0.6,0.6,0.9,1.3,0.9,2.2c0,0.8-0.3,1.6-0.9,2.2C393.3,205.7,392.6,206,391.8,206z M389.8,244.7V214h4v30.7
		H389.8z"/>
	<path class="st0" d="M413.7,213c2.3,0,4.3,0.4,6.2,1.3c1.9,0.8,3.5,2,4.9,3.4c1.4,1.5,2.5,3.2,3.2,5.2c0.8,2,1.2,4.1,1.2,6.5
		s-0.4,4.5-1.2,6.5c-0.8,2-1.8,3.7-3.2,5.2c-1.4,1.5-3,2.6-4.9,3.4c-1.9,0.8-4,1.3-6.2,1.3c-2.2,0-4.3-0.4-6.2-1.3
		c-1.9-0.8-3.5-2-4.9-3.4c-1.4-1.5-2.5-3.2-3.2-5.2c-0.8-2-1.2-4.1-1.2-6.5s0.4-4.5,1.2-6.5c0.8-2,1.8-3.7,3.2-5.2
		c1.4-1.5,3-2.6,4.9-3.4C409.4,213.4,411.4,213,413.7,213z M413.7,242.1c1.5,0,2.9-0.3,4.3-0.9c1.4-0.6,2.6-1.5,3.7-2.6
		s1.9-2.4,2.6-4c0.6-1.6,1-3.3,1-5.2c0-1.9-0.3-3.7-1-5.2c-0.6-1.6-1.5-2.9-2.6-4s-2.3-2-3.7-2.6c-1.4-0.6-2.8-0.9-4.3-0.9
		s-2.9,0.3-4.3,0.9c-1.4,0.6-2.6,1.5-3.7,2.6c-1.1,1.1-1.9,2.4-2.5,4s-0.9,3.3-0.9,5.2c0,1.9,0.3,3.7,0.9,5.2s1.5,2.9,2.5,4
		c1.1,1.1,2.3,2,3.7,2.6C410.7,241.8,412.2,242.1,413.7,242.1z"/>
	<path class="st0" d="M436.7,219.8h0.3c0.5-0.9,1.1-1.8,1.8-2.6c0.7-0.8,1.5-1.5,2.5-2.2c0.9-0.6,2-1.1,3.1-1.5
		c1.1-0.4,2.3-0.5,3.6-0.5c1.9,0,3.5,0.3,5,0.9c1.4,0.6,2.6,1.5,3.5,2.6c0.9,1.1,1.6,2.4,2.1,4s0.7,3.2,0.7,5v19.2h-4v-18.6
		c0-3.3-0.7-5.7-2.2-7.2c-1.5-1.5-3.5-2.3-6.1-2.3c-1.5,0-2.8,0.3-4,1c-1.2,0.6-2.3,1.5-3.1,2.6s-1.6,2.4-2.1,3.8
		c-0.5,1.4-0.8,2.9-0.8,4.5v16.2h-4V214h3.8V219.8z"/>
</g>
</svg>
